<svg width="96" height="25" viewBox="0 0 96 25" fill="none" xmlns="http://www.w3.org/2000/svg">
<path d="M64.5546 20.2603L64.6338 18.9965L64.7527 16.5084L64.7923 14.7706V13.5068H65.8616C66.0992 13.5068 66.4556 13.5068 66.8913 13.4673C67.3269 13.4278 67.7229 13.4278 68.0002 13.4278C68.3328 13.4278 68.6615 13.4515 68.9903 13.5068C69.2002 13.566 69.4021 13.6608 69.5843 13.7833C69.7467 13.9057 69.8972 14.0558 70.02 14.2177C70.1388 14.3836 70.218 14.5731 70.2576 14.7706C70.3051 14.9799 70.3289 15.1893 70.3368 15.4025C70.3289 15.8291 70.2219 16.2477 70.02 16.6269C69.8061 16.9902 69.4893 17.2785 69.1091 17.4562C68.7011 17.6498 68.2536 17.7445 67.8021 17.7327C67.6437 17.7327 67.4061 17.6932 67.1685 17.6932C67.1289 17.5352 67.0893 17.2983 67.0101 17.0218C66.9309 16.7453 66.8913 16.5084 66.8517 16.3504C66.9942 16.382 67.1408 16.3938 67.2873 16.3899C67.5606 16.4096 67.8299 16.3227 68.0398 16.1529C68.1982 15.9989 68.2853 15.7817 68.2774 15.5605C68.2853 15.4539 68.2695 15.3472 68.2378 15.2445C68.2101 15.1616 68.1507 15.0945 68.0794 15.0471C67.9883 14.9997 67.8972 14.9602 67.8021 14.9286C67.7229 14.9286 67.6041 14.8891 67.4853 14.8891H67.1289L66.6932 14.9286C66.6536 15.5605 66.614 16.2714 66.5744 17.0613C66.5348 18.4831 66.4952 19.3125 66.4952 19.6284V20.2603H64.5546V20.2603ZM56.9111 13.5463H59.0893L58.9309 15.6395C58.8913 16.0344 58.8913 16.3899 58.8517 16.7453C58.8121 17.1008 58.8121 17.3378 58.8121 17.4562C58.8042 17.6695 58.8161 17.8788 58.8517 18.0881C58.8953 18.2422 58.9586 18.3883 59.0497 18.5226C59.1566 18.645 59.2913 18.7398 59.4458 18.799C59.6121 18.8464 59.7863 18.8701 59.9606 18.878C60.1071 18.8741 60.2576 18.8464 60.3962 18.799C60.4992 18.7714 60.5943 18.7161 60.6735 18.6411C60.7566 18.5976 60.8279 18.5265 60.8715 18.4436C60.9547 18.337 61.022 18.2145 61.0695 18.0881C61.117 17.9183 61.1566 17.7485 61.1883 17.5747C61.2279 17.3772 61.2675 16.8638 61.3071 16.1134C61.3467 15.4815 61.3863 14.8496 61.4259 14.3362C61.4655 13.8227 61.4655 13.5463 61.4655 13.5463H63.6437L63.4061 17.0613V17.2193C63.4259 17.709 63.3824 18.1987 63.2873 18.6806C63.2081 18.9491 63.0893 19.2019 62.9309 19.431C62.7368 19.664 62.4913 19.8536 62.218 19.9839C61.8774 20.1498 61.521 20.2682 61.1487 20.3393C60.7448 20.4183 60.3329 20.4578 59.921 20.4578C59.5646 20.4499 59.2081 20.4262 58.8517 20.3788C58.5507 20.3433 58.2576 20.2603 57.9804 20.1419C57.7428 20.0234 57.5052 19.9049 57.3071 19.7864C57.1487 19.6877 57.0101 19.5494 56.9111 19.3915C56.8161 19.2414 56.7369 19.0834 56.6735 18.9175C56.626 18.6964 56.5982 18.4712 56.5943 18.2461V17.8907C56.5943 17.7327 56.6339 17.4957 56.6339 17.2193L56.7131 16.4294C56.7131 16.2319 56.7527 15.916 56.7527 15.521L56.9111 13.5463ZM51.8418 14.8891C51.4775 14.8772 51.121 14.972 50.8121 15.1656C50.4993 15.3472 50.2498 15.6237 50.0993 15.9554C49.9369 16.2872 49.8577 16.6545 49.8617 17.0218C49.8537 17.3536 49.9369 17.6814 50.0993 17.9697C50.2616 18.2501 50.4913 18.4791 50.7725 18.6411C51.0775 18.799 51.4181 18.878 51.7626 18.878C52.1151 18.8899 52.4597 18.7951 52.7527 18.6016C53.0656 18.4199 53.3151 18.1434 53.4656 17.8117C53.624 17.4918 53.7032 17.1403 53.7032 16.7848C53.7032 16.4412 53.624 16.1016 53.4656 15.7975C53.3191 15.5092 53.1012 15.2643 52.8319 15.0866C52.5191 14.9602 52.1824 14.893 51.8418 14.8891ZM51.921 13.3883C52.4399 13.3962 52.9587 13.4633 53.4656 13.5858C54.3804 13.8385 55.1448 14.4705 55.5646 15.3235C55.7626 15.758 55.8577 16.228 55.8418 16.7058C55.8418 17.2351 55.7309 17.7603 55.525 18.2461C55.3428 18.7082 55.0418 19.119 54.6537 19.431C54.2537 19.7509 53.7983 19.9918 53.3072 20.1419C52.2498 20.4578 51.1171 20.4578 50.0597 20.1419C49.5686 19.9918 49.1131 19.7509 48.7131 19.431C48.3567 19.1387 48.0834 18.7556 47.9211 18.3251C47.7547 17.8986 47.6755 17.4404 47.6834 16.9823C47.6636 16.3148 47.8458 15.6553 48.1983 15.0866C48.5508 14.5178 49.0815 14.0755 49.7032 13.8227C50.4082 13.5305 51.1607 13.3844 51.921 13.3883ZM40.7132 20.2603C40.7924 19.6679 40.832 19.1545 40.8716 18.6806C40.9112 18.2066 40.9508 17.6932 40.9508 17.0613C40.9508 16.4294 40.9904 15.7975 41.03 15.1261V13.5068H42.0201C42.3369 13.5107 42.6538 13.4989 42.9706 13.4673C43.3666 13.4673 43.7231 13.4278 44.0795 13.4278C44.4637 13.4199 44.8478 13.4317 45.228 13.4673C45.4577 13.4949 45.6835 13.5502 45.9013 13.6253C46.0835 13.6924 46.2577 13.7872 46.4161 13.9017C46.5429 14.0084 46.6656 14.1308 46.7726 14.2572C46.8636 14.3915 46.927 14.5376 46.9706 14.6916C47.0181 14.8733 47.0458 15.0589 47.0498 15.2445C47.0458 15.4578 47.0181 15.6711 46.9706 15.8765C46.9112 16.0739 46.8161 16.2635 46.6934 16.4294C46.5706 16.5913 46.4201 16.7414 46.2577 16.8638C46.0597 16.9823 45.8221 17.1008 45.5052 17.2588L45.7825 17.8907C45.8617 18.0487 45.9409 18.2461 46.0201 18.4436L46.6934 19.9049C46.733 19.9839 46.7726 20.1024 46.8518 20.2603H44.5547C44.5151 20.1024 44.3963 19.7864 44.2775 19.3125C44.2458 19.1624 44.1904 19.0163 44.1191 18.878C44.0399 18.6411 43.9211 18.3251 43.7627 17.8907L43.2478 16.5084C43.4181 16.54 43.5884 16.5518 43.7627 16.5479C43.9924 16.5518 44.2221 16.5084 44.4359 16.4294C44.6181 16.3662 44.7765 16.2398 44.8716 16.0739C44.9785 15.9396 45.034 15.7698 45.03 15.6C45.0419 15.4697 44.9983 15.3433 44.9112 15.2445C44.828 15.1221 44.7013 15.0392 44.5547 15.0076C44.3092 14.9523 44.0557 14.9246 43.8023 14.9286H43.0102C42.9706 15.6 42.931 16.4294 42.8914 17.4167C42.8518 18.4041 42.8518 19.352 42.8122 20.2603C42.8122 20.2603 40.7132 20.2603 40.7132 20.2603ZM36.7924 16.3504H39.7627C39.7231 16.7848 39.6835 17.4562 39.6439 18.2856C39.6043 19.115 39.5647 19.7469 39.5647 20.1419C39.1686 20.2209 38.8518 20.2603 38.6142 20.2998C38.3766 20.3393 38.0597 20.3393 37.7033 20.3788C37.3865 20.4104 37.0696 20.4223 36.7528 20.4183C36.3132 20.4183 35.8776 20.3788 35.4459 20.2998C35.0499 20.2366 34.6617 20.1142 34.2974 19.9444C33.9607 19.7904 33.6637 19.5613 33.4261 19.273C33.1845 18.9847 33.0103 18.649 32.9112 18.2856C32.7885 17.9025 32.7212 17.5036 32.7132 17.1008C32.7013 16.4452 32.8796 15.8014 33.2281 15.2445C33.5687 14.6758 34.0637 14.2098 34.6538 13.9017C35.4063 13.5423 36.234 13.3686 37.0696 13.3883C37.8815 13.3923 38.6934 13.487 39.4855 13.6648C39.4855 14.1387 39.5251 14.6916 39.5647 15.284C39.3271 15.2051 39.129 15.1261 38.9706 15.0866C38.8122 15.0471 38.6538 15.0076 38.4558 14.9681C38.2736 14.9246 38.0875 14.897 37.9013 14.8891C37.7429 14.8891 37.5845 14.8496 37.4261 14.8496C37.0776 14.8417 36.729 14.893 36.3964 15.0076C36.0954 15.1182 35.8142 15.2761 35.5647 15.4815C35.3271 15.6948 35.1489 15.9673 35.0499 16.2714C34.939 16.5755 34.8875 16.8954 34.8914 17.2193C34.8914 17.5313 34.9588 17.8433 35.0895 18.1276C35.2162 18.4002 35.4419 18.6134 35.7231 18.7201C36.0162 18.8701 36.3449 18.9373 36.6736 18.9175C36.9944 18.9136 37.3112 18.8741 37.6241 18.799L37.6637 17.7327H36.7528L36.7924 17.1403V16.3504V16.3504ZM64.317 11.5716C64.3962 10.7027 64.4754 9.99178 64.515 9.43886C64.5546 8.88594 64.5942 8.09605 64.6338 7.14818C64.6734 6.20031 64.6734 5.5684 64.6734 5.25245V4.81801H70.1784V4.97598C70.1784 5.12211 70.1625 5.26824 70.1388 5.41042L70.0992 5.96335V6.3188C69.4655 6.2793 68.911 6.2793 68.4754 6.2793H67.5249C67.2596 6.27535 66.9942 6.29115 66.7328 6.3188L66.6536 7.46414H68.0002C68.1982 7.46414 68.6734 7.46414 69.4655 7.42464C69.4259 7.85908 69.3863 8.33301 69.3863 8.92543H68.0794C67.6437 8.92543 67.1289 8.92543 66.5348 8.96493L66.4952 10.1498H68.0794L69.1091 10.1103C69.3586 10.1103 69.612 10.0984 69.8615 10.0708C69.8219 10.5447 69.7823 11.0581 69.7427 11.5716H64.317ZM63.3665 9.95229C63.3269 10.1498 63.2873 10.4262 63.2081 10.7817C63.1843 11.0463 63.1447 11.3109 63.0893 11.5716C62.4596 11.6782 61.8259 11.7295 61.1883 11.7295C60.6814 11.7256 60.1745 11.6624 59.6834 11.5321C59.216 11.4057 58.7844 11.1766 58.4161 10.8607C58.0517 10.5842 57.7626 10.2169 57.5844 9.79431C57.418 9.35197 57.3388 8.88199 57.3468 8.412C57.3428 7.85513 57.4537 7.30616 57.6636 6.79273C57.8893 6.33459 58.2141 5.9278 58.6141 5.6079C59.026 5.29194 59.4972 5.06287 60.0002 4.93649C60.5071 4.81406 61.0259 4.74692 61.5447 4.73902C62.1546 4.75876 62.7645 4.82591 63.3665 4.93649V5.37093C63.3586 5.5684 63.3744 5.76587 63.4061 5.96335L63.4457 6.51627C63.0497 6.43728 62.7329 6.35829 62.4952 6.3188C62.2735 6.2872 62.0477 6.27535 61.822 6.2793C61.4101 6.26745 60.9982 6.36224 60.6339 6.55576C60.2854 6.73349 59.9962 7.006 59.8022 7.34565C59.5962 7.6932 59.4854 8.08815 59.4854 8.49099C59.4695 8.82275 59.5527 9.1545 59.723 9.43886C59.8893 9.71927 60.1388 9.93649 60.4358 10.0708C60.7646 10.2406 61.1329 10.3235 61.5051 10.3077C61.7547 10.3117 62.0081 10.2998 62.2576 10.2682C62.614 10.1182 62.9863 10.0115 63.3665 9.95229ZM49.1884 11.5716L49.3072 10.5447L49.5052 7.0297L49.5448 5.6079V4.81801H52.0795L54.2181 8.64897L54.4953 9.20189C54.5349 8.64897 54.5745 7.85908 54.6141 6.87172C54.6537 5.88436 54.6537 5.17346 54.6537 4.81801H56.6339L56.5151 6.2793L56.2775 10.3867L56.2378 11.5716H53.7428C53.5844 11.2556 53.426 11.0186 53.3468 10.8607L52.5151 9.43886C52.2379 8.96493 52.0002 8.53049 51.7626 8.09605C51.6042 7.81959 51.4458 7.54312 51.2874 7.22717L51.1686 9.55734L51.129 11.5321H50.1785C49.8498 11.5716 49.5211 11.5874 49.1884 11.5716ZM42.4557 11.5716C42.535 10.7027 42.6142 9.99178 42.6538 9.43886C42.6934 8.88594 42.733 8.09605 42.7726 7.14818C42.8122 6.20031 42.8122 5.5684 42.8122 5.25245V4.81801H48.3171V4.97598C48.3171 5.12211 48.3013 5.26824 48.2775 5.41042L48.2379 5.96335V6.3188C47.6042 6.2793 47.0498 6.2793 46.6141 6.2793H45.6637C45.3983 6.27535 45.133 6.29115 44.8716 6.3188L44.7924 7.46414H46.1389C46.3369 7.46414 46.8122 7.46414 47.6042 7.42464C47.5646 7.85908 47.525 8.33301 47.525 8.92543H46.2181C45.7825 8.92543 45.2676 8.92543 44.6736 8.96493L44.634 10.1498H46.2181L47.2478 10.1103C47.4973 10.1103 47.7508 10.0984 48.0003 10.0708C47.9607 10.5447 47.9211 11.0581 47.8815 11.5716C47.8815 11.5716 42.4557 11.5716 42.4557 11.5716ZM36.7924 10.1103C36.9904 10.1103 37.1489 10.1498 37.3469 10.1498C37.6518 10.1458 37.9568 10.1182 38.2578 10.0708C38.531 10.0194 38.7805 9.8812 38.9706 9.67583C39.1845 9.47046 39.335 9.20979 39.4063 8.92543C39.4974 8.61737 39.5488 8.29747 39.5647 7.97756C39.5686 7.63791 39.5013 7.30221 39.3667 6.9902C39.2597 6.74139 39.0617 6.54391 38.8122 6.43728C38.5112 6.31485 38.1865 6.25955 37.8617 6.2793C37.5845 6.27535 37.3073 6.2872 37.03 6.3188C37.03 6.3188 36.7924 10.1103 36.7924 10.1103ZM34.6538 11.5716C34.733 10.8212 34.7726 10.2287 34.8122 9.75482C34.8518 9.08341 34.8914 8.21453 34.931 7.14818C34.9706 6.3188 34.9706 5.72638 34.9706 5.41042V4.81801H35.9607C36.238 4.81801 36.5944 4.81801 37.03 4.77851C37.4657 4.73902 37.9013 4.73902 38.2578 4.73902C38.6419 4.74297 39.0261 4.76666 39.4063 4.81801C39.7389 4.86935 40.0597 4.97598 40.3568 5.13396C40.63 5.29984 40.8716 5.51706 41.0696 5.76587C41.2756 6.05023 41.4261 6.37014 41.5053 6.71374C41.6201 7.06919 41.6716 7.44439 41.6637 7.81959C41.6637 8.17899 41.6241 8.53444 41.5449 8.88594C41.4696 9.20979 41.3627 9.5297 41.228 9.8338C41.0894 10.0945 40.9152 10.3314 40.7132 10.5447C40.5191 10.7382 40.3092 10.9081 40.0795 11.0581C39.9092 11.1687 39.7231 11.2517 39.5251 11.2951C39.3271 11.3346 39.0894 11.4136 38.7726 11.4531C38.3647 11.4886 37.9528 11.5005 37.5449 11.4926H35.5251C35.2439 11.5716 34.9469 11.5992 34.6538 11.5716ZM31.1687 11.5716C31.3667 8.92543 31.4459 6.87172 31.4459 5.44992V4.81801H33.6637C33.6241 5.5684 33.5449 6.2793 33.5053 6.91121C33.4657 7.81959 33.4261 8.68846 33.4261 9.51785C33.4261 10.3472 33.3865 11.0186 33.3865 11.5716H31.1687ZM24.1192 11.5716C24.1984 10.9002 24.238 10.3472 24.2776 9.95229C24.3172 9.35987 24.3568 8.53049 24.3964 7.46414C24.436 6.39779 24.436 5.72638 24.436 5.33143V4.77851H29.7033C29.6637 5.52891 29.6241 6.04233 29.6241 6.2793H26.4954L26.4558 7.42464H29.0301C28.9905 8.05655 28.9905 8.53049 28.9905 8.88594C28.4756 8.88594 28.0796 8.84644 27.8024 8.84644C27.3667 8.84644 26.8915 8.84644 26.3766 8.88594L26.337 10.6632V11.5716H24.1192ZM15.8024 11.5716L15.9212 10.5447L16.1193 7.0297L16.1589 5.6079V4.81801H18.6935L20.8321 8.64897L21.1093 9.20189C21.1489 8.64897 21.1885 7.85908 21.2281 6.87172C21.2677 5.88436 21.2677 5.17346 21.2677 4.81801H23.2479L23.1291 6.2793L22.8915 10.3867L22.8519 11.5716H20.3569C20.1984 11.2556 20.04 11.0186 19.9608 10.8607L19.1291 9.43886C18.8519 8.96493 18.6143 8.53049 18.3767 8.09605C18.2183 7.81959 18.0598 7.54312 17.9014 7.22717L17.7826 9.55734L17.743 11.5321H16.7925C16.4638 11.5716 16.1351 11.5874 15.8024 11.5716ZM10.9708 6.20031C10.6064 6.18846 10.25 6.28325 9.94108 6.47677C9.62821 6.65845 9.37871 6.93491 9.22821 7.26666C9.06584 7.59842 8.98663 7.96572 8.99059 8.33301C8.98267 8.66477 9.06584 8.99257 9.22821 9.28088C9.39059 9.56129 9.62029 9.79036 9.90148 9.95229C10.2064 10.1103 10.547 10.1893 10.8916 10.1893C11.244 10.2011 11.5886 10.1063 11.8817 9.91279C12.1945 9.73112 12.444 9.45466 12.5945 9.1229C12.7529 8.803 12.8322 8.4515 12.8322 8.09605C12.8322 7.75245 12.7529 7.41279 12.5945 7.10869C12.448 6.82038 12.2302 6.57551 11.9609 6.39779C11.648 6.2635 11.3114 6.19636 10.9708 6.20031ZM11.0896 4.69952C11.6084 4.70742 12.1272 4.77456 12.6341 4.89699C13.549 5.14976 14.3133 5.78167 14.7331 6.63475C14.9311 7.06919 15.0262 7.53918 15.0104 8.01706C15.0104 8.54628 14.8995 9.07156 14.6935 9.55734C14.5113 10.0194 14.2104 10.4302 13.8222 10.7422C13.4222 11.0621 12.9668 11.303 12.4757 11.4531C11.4183 11.769 10.2856 11.769 9.22821 11.4531C8.73712 11.303 8.28168 11.0621 7.88168 10.7422C7.52525 10.4499 7.25198 10.0668 7.08961 9.63633C6.92327 9.20979 6.84407 8.75166 6.85199 8.29352C6.83218 7.62606 7.01436 6.96651 7.36684 6.39779C7.71931 5.82907 8.25 5.38673 8.87178 5.13396C9.57276 4.83775 10.3292 4.69162 11.0896 4.69952ZM6.02031 9.95229C5.9807 10.1498 5.9411 10.4262 5.86189 10.7817C5.83813 11.0463 5.79853 11.3109 5.74308 11.5716C5.11338 11.6782 4.47972 11.7295 3.8421 11.7295C3.33517 11.7256 2.82825 11.6624 2.33716 11.5321C1.86984 11.4057 1.43816 11.1766 1.06984 10.8607C0.705487 10.5842 0.416379 10.2169 0.238162 9.79431C0.0718268 9.35197 -0.0073807 8.88199 0.000540051 8.412C0.000540051 7.85513 0.10747 7.30616 0.31737 6.79273C0.543111 6.33459 0.867862 5.9278 1.26786 5.6079C1.67974 5.29194 2.15102 5.06287 2.65399 4.93649C3.16092 4.81406 3.67973 4.74692 4.19854 4.73902C4.80843 4.75876 5.41833 4.82591 6.02031 4.93649V5.37093C6.01239 5.5684 6.02823 5.76587 6.05991 5.96335L6.09952 6.51627C5.70348 6.43728 5.38665 6.35829 5.14903 6.3188C4.92725 6.2872 4.7015 6.27535 4.47576 6.2793C4.06388 6.26745 3.65201 6.36224 3.28765 6.55576C2.93914 6.73349 2.65003 7.006 2.45597 7.34565C2.25003 7.6932 2.13914 8.08815 2.13914 8.49099C2.1233 8.82275 2.20647 9.1545 2.37676 9.43886C2.5431 9.71927 2.7926 9.93649 3.08963 10.0708C3.41834 10.2406 3.78666 10.3235 4.15893 10.3077C4.40844 10.3117 4.6619 10.2998 4.9114 10.2682C5.26784 10.1221 5.64011 10.0155 6.02031 9.95229Z" fill="#C4C4C4"/>
<path d="M84.3565 13.9017V11.7295L86.1387 10.7421V5.21289H90.2971L88.6338 1.10547L75.8813 5.72632V19.2334H84.3565V13.9017Z" fill="#C4C4C4"/>
<path d="M95.1286 19.2737V5.7666H86.6534V11.0589V13.31L84.9108 14.2184V19.7871H84.6732H80.7524L82.3762 23.8946L95.1286 19.2737Z" fill="#E6E6E6"/>
<path d="M91.0891 4.89731L89.1485 0L75.0496 5.09479V20.1027H79.9604L81.901 25L95.9999 19.9052V4.93681L91.0891 4.89731ZM95.6831 19.6288L82.0594 24.5656L80.1584 19.7472H75.3664V5.33175L88.9901 0.394945L90.891 5.21327H95.7227V19.6288H95.6831Z" fill="white"/>
<path d="M86.1386 11.335V12.9542L84.9109 13.5861V12.0459L86.1386 11.335Z" fill="white"/>
</svg>
