<svg width="236" height="62" viewBox="0 0 236 62" fill="none" xmlns="http://www.w3.org/2000/svg">
<path d="M158.697 50.2469L158.892 47.1126L159.184 40.942L159.281 36.6323V33.4981H161.91C162.494 33.4981 163.37 33.498 164.441 33.4001C165.512 33.3022 166.486 33.3022 167.167 33.3022C167.985 33.3022 168.793 33.3609 169.601 33.4981C170.117 33.645 170.614 33.88 171.061 34.1837C171.461 34.4873 171.831 34.8595 172.132 35.2611C172.424 35.6725 172.619 36.1426 172.717 36.6323C172.833 37.1514 172.892 37.6706 172.911 38.1995C172.892 39.2573 172.629 40.2955 172.132 41.2358C171.607 42.1369 170.828 42.8519 169.893 43.2927C168.89 43.7726 167.79 44.0077 166.68 43.9783C166.291 43.9783 165.707 43.8804 165.123 43.8804C165.025 43.4886 164.928 42.9009 164.733 42.2153C164.538 41.5296 164.441 40.942 164.344 40.5502C164.694 40.6285 165.054 40.6579 165.415 40.6481C166.086 40.6971 166.748 40.4816 167.264 40.0605C167.654 39.6785 167.868 39.1398 167.849 38.5913C167.868 38.3268 167.829 38.0623 167.751 37.8077C167.683 37.602 167.537 37.4355 167.362 37.318C167.138 37.2004 166.914 37.1025 166.68 37.0241C166.486 37.0241 166.193 36.9262 165.901 36.9262H165.025L163.954 37.0241C163.857 38.5913 163.759 40.3543 163.662 42.3132C163.565 45.8393 163.467 47.8962 163.467 48.6797V50.2469H158.697ZM139.906 33.596H145.261L144.872 38.7871C144.774 39.7666 144.774 40.6481 144.677 41.5296C144.58 42.4112 144.58 42.9988 144.58 43.2927C144.56 43.8216 144.589 44.3407 144.677 44.8598C144.784 45.2418 144.94 45.6042 145.164 45.9372C145.427 46.2409 145.758 46.4759 146.137 46.6229C146.546 46.7404 146.975 46.7992 147.403 46.8187C147.763 46.809 148.133 46.7404 148.474 46.6229C148.727 46.5543 148.961 46.4172 149.156 46.2311C149.36 46.1233 149.535 45.947 149.642 45.7413C149.847 45.4769 150.012 45.1732 150.129 44.8598C150.246 44.4387 150.343 44.0175 150.421 43.5865C150.519 43.0968 150.616 41.8235 150.713 39.9625C150.811 38.3954 150.908 36.8282 151.005 35.5549C151.103 34.2816 151.103 33.596 151.103 33.596H156.458L155.873 42.3132V42.705C155.922 43.9195 155.815 45.1341 155.581 46.329C155.387 46.995 155.095 47.6219 154.705 48.19C154.228 48.7679 153.624 49.238 152.953 49.5612C152.115 49.9726 151.239 50.2665 150.324 50.4428C149.331 50.6387 148.318 50.7366 147.306 50.7366C146.43 50.717 145.553 50.6582 144.677 50.5407C143.937 50.4526 143.217 50.2469 142.535 49.953C141.951 49.6592 141.367 49.3653 140.88 49.0715C140.491 48.8266 140.15 48.4838 139.906 48.092C139.673 47.7199 139.478 47.3281 139.322 46.9167C139.206 46.3682 139.137 45.8099 139.128 45.2516V44.3701C139.128 43.9783 139.225 43.3906 139.225 42.705L139.42 40.7461C139.42 40.2563 139.517 39.4728 139.517 38.4933L139.906 33.596ZM127.444 36.9262C126.549 36.8968 125.673 37.1319 124.913 37.6118C124.144 38.0623 123.531 38.748 123.161 39.5707C122.762 40.3935 122.567 41.3044 122.577 42.2153C122.557 43.038 122.762 43.851 123.161 44.566C123.56 45.2614 124.125 45.8295 124.816 46.2311C125.565 46.6229 126.403 46.8187 127.25 46.8187C128.116 46.8481 128.963 46.6131 129.684 46.1331C130.453 45.6826 131.066 44.9969 131.436 44.1742C131.826 43.3808 132.02 42.5091 132.02 41.6276C132.02 40.7755 131.826 39.9331 131.436 39.1789C131.076 38.4639 130.541 37.8567 129.878 37.4159C129.109 37.1025 128.282 36.936 127.444 36.9262ZM127.639 33.2042C128.915 33.2238 130.19 33.3903 131.436 33.6939C133.685 34.3208 135.564 35.8879 136.596 38.0036C137.083 39.081 137.317 40.2465 137.278 41.4317C137.278 42.7442 137.005 44.0469 136.499 45.2516C136.051 46.3976 135.311 47.4162 134.357 48.19C133.374 48.9834 132.254 49.5808 131.047 49.953C128.447 50.7366 125.663 50.7366 123.063 49.953C121.856 49.5808 120.736 48.9834 119.753 48.19C118.877 47.4652 118.205 46.5151 117.806 45.4475C117.397 44.3897 117.202 43.2535 117.222 42.1173C117.173 40.462 117.621 38.8263 118.487 37.4159C119.354 36.0055 120.659 34.9085 122.187 34.2816C123.92 33.5568 125.77 33.1944 127.639 33.2042ZM100.087 50.2469C100.281 48.7777 100.379 47.5044 100.476 46.329C100.573 45.1537 100.671 43.8804 100.671 42.3132C100.671 40.7461 100.768 39.1789 100.865 37.5138V33.4981H103.299C104.078 33.5078 104.857 33.4785 105.636 33.4001C106.61 33.4001 107.486 33.3022 108.362 33.3022C109.306 33.2826 110.251 33.312 111.186 33.4001C111.75 33.4687 112.305 33.6058 112.841 33.7919C113.288 33.9584 113.717 34.1935 114.106 34.4775C114.418 34.742 114.72 35.0456 114.983 35.359C115.206 35.692 115.362 36.0545 115.469 36.4364C115.586 36.887 115.654 37.3473 115.664 37.8077C115.654 38.3366 115.586 38.8655 115.469 39.3748C115.323 39.8646 115.09 40.3347 114.788 40.7461C114.486 41.1477 114.116 41.5199 113.717 41.8235C113.23 42.1173 112.646 42.4112 111.867 42.8029L112.549 44.3701C112.743 44.7619 112.938 45.2516 113.133 45.7413L114.788 49.3654C114.885 49.5612 114.983 49.8551 115.177 50.2469H109.53C109.433 49.8551 109.141 49.0715 108.849 47.8962C108.771 47.524 108.635 47.1616 108.459 46.8187C108.265 46.2311 107.973 45.4475 107.583 44.3701L106.318 40.942C106.736 41.0203 107.155 41.0497 107.583 41.0399C108.148 41.0497 108.713 40.942 109.238 40.7461C109.686 40.5894 110.076 40.2759 110.309 39.8646C110.572 39.5315 110.708 39.1104 110.699 38.6892C110.728 38.366 110.621 38.0526 110.407 37.8077C110.202 37.5041 109.891 37.2984 109.53 37.22C108.927 37.0829 108.304 37.0143 107.681 37.0241H105.733C105.636 38.6892 105.539 40.7461 105.441 43.1947C105.344 45.6434 105.344 47.9941 105.247 50.2469H100.087ZM90.448 40.5502H97.75C97.6526 41.6276 97.5552 43.2927 97.4579 45.3496C97.3605 47.4064 97.2632 48.9736 97.2632 49.953C96.2896 50.1489 95.5107 50.2469 94.9265 50.3448C94.3424 50.4428 93.5635 50.4428 92.6873 50.5407C91.9084 50.6191 91.1295 50.6484 90.3507 50.6387C89.27 50.6387 88.199 50.5407 87.1378 50.3448C86.1642 50.1881 85.2101 49.8845 84.3144 49.4633C83.4868 49.0813 82.7566 48.5132 82.1725 47.7982C81.5786 47.0832 81.1502 46.2507 80.9068 45.3496C80.605 44.3995 80.4395 43.4102 80.42 42.4112C80.3908 40.7853 80.8289 39.1887 81.6857 37.8077C82.523 36.3973 83.74 35.2415 85.1906 34.4775C87.0405 33.5862 89.0753 33.1552 91.1295 33.2042C93.1254 33.214 95.1213 33.4491 97.0684 33.8898C97.0684 35.0652 97.1658 36.4364 97.2632 37.9056C96.679 37.7097 96.1922 37.5138 95.8028 37.4159C95.4133 37.318 95.0239 37.22 94.5371 37.1221C94.0892 37.0143 93.6317 36.9458 93.1741 36.9262C92.7846 36.9262 92.3952 36.8282 92.0058 36.8282C91.149 36.8086 90.2922 36.936 89.4744 37.22C88.7345 37.4943 88.0433 37.886 87.4299 38.3954C86.8457 38.9243 86.4076 39.6001 86.1642 40.3543C85.8916 41.1085 85.765 41.9018 85.7748 42.705C85.7748 43.4788 85.9403 44.2526 86.2616 44.9578C86.5731 45.6336 87.1281 46.1625 87.8193 46.427C88.5398 46.7992 89.3479 46.9657 90.1559 46.9167C90.9445 46.9069 91.7234 46.809 92.4926 46.6229L92.5899 43.9783H90.3507L90.448 42.5091V40.5502ZM158.113 28.6987C158.307 26.5439 158.502 24.7808 158.599 23.4096C158.697 22.0383 158.794 20.0794 158.892 17.7287C158.989 15.378 158.989 13.8108 158.989 13.0273V11.9499H172.522V12.3417C172.522 12.7041 172.483 13.0665 172.424 13.4191L172.327 14.7903V15.6718C170.769 15.5739 169.406 15.5739 168.335 15.5739H165.999C165.346 15.5641 164.694 15.6033 164.052 15.6718L163.857 18.5123H167.167C167.654 18.5123 168.822 18.5123 170.769 18.4143C170.672 19.4917 170.575 20.6671 170.575 22.1363H167.362C166.291 22.1363 165.025 22.1363 163.565 22.2342L163.467 25.1726H167.362L169.893 25.0747C170.506 25.0747 171.13 25.0453 171.743 24.9767C171.646 26.1521 171.548 27.4254 171.451 28.6987H158.113ZM155.776 24.6829C155.679 25.1726 155.581 25.8582 155.387 26.7398C155.328 27.396 155.231 28.0522 155.095 28.6987C153.547 28.9631 151.989 29.0905 150.421 29.0905C149.175 29.0807 147.929 28.924 146.722 28.6007C145.573 28.2873 144.512 27.7192 143.606 26.9356C142.71 26.25 142 25.3391 141.562 24.2911C141.153 23.1941 140.958 22.0285 140.977 20.863C140.968 19.4819 141.24 18.1205 141.756 16.8472C142.311 15.711 143.11 14.7022 144.093 13.9088C145.105 13.1252 146.264 12.5571 147.501 12.2437C148.747 11.9401 150.022 11.7736 151.298 11.754C152.797 11.8029 154.296 11.9695 155.776 12.2437V13.3211C155.757 13.8108 155.796 14.3006 155.873 14.7903L155.971 16.1616C154.997 15.9657 154.218 15.7698 153.634 15.6718C153.089 15.5935 152.534 15.5641 151.979 15.5739C150.966 15.5445 149.954 15.7796 149.058 16.2595C148.201 16.7003 147.491 17.3761 147.014 18.2184C146.507 19.0804 146.235 20.0598 146.235 21.0589C146.196 21.8816 146.4 22.7044 146.819 23.4096C147.228 24.105 147.841 24.6437 148.571 24.9767C149.38 25.3979 150.285 25.6036 151.2 25.5644C151.814 25.5742 152.437 25.5448 153.05 25.4665C153.926 25.0943 154.841 24.8298 155.776 24.6829ZM120.921 28.6987L121.214 26.1521L121.7 17.4349L121.798 13.9088V11.9499H128.029L133.286 21.4507L133.968 22.8219C134.065 21.4507 134.162 19.4917 134.26 17.0431C134.357 14.5944 134.357 12.8314 134.357 11.9499H139.225L138.933 15.5739L138.349 25.7603L138.251 28.6987H132.118C131.728 27.9151 131.339 27.3274 131.144 26.9356L129.1 23.4096C128.418 22.2342 127.834 21.1568 127.25 20.0794C126.86 19.3938 126.471 18.7082 126.081 17.9246L125.789 23.7034L125.692 28.6007H123.355C122.547 28.6987 121.739 28.7379 120.921 28.6987ZM104.37 28.6987C104.565 26.5439 104.76 24.7808 104.857 23.4096C104.955 22.0383 105.052 20.0794 105.149 17.7287C105.247 15.378 105.247 13.8108 105.247 13.0273V11.9499H118.78V12.3417C118.78 12.7041 118.741 13.0665 118.682 13.4191L118.585 14.7903V15.6718C117.027 15.5739 115.664 15.5739 114.593 15.5739H112.256C111.604 15.5641 110.952 15.6033 110.309 15.6718L110.115 18.5123H113.425C113.912 18.5123 115.08 18.5123 117.027 18.4143C116.93 19.4917 116.832 20.6671 116.832 22.1363H113.62C112.549 22.1363 111.283 22.1363 109.823 22.2342L109.725 25.1726H113.62L116.151 25.0747C116.764 25.0747 117.387 25.0453 118.001 24.9767C117.903 26.1521 117.806 27.4254 117.709 28.6987H104.37ZM90.448 25.0747C90.9348 25.0747 91.3243 25.1726 91.8111 25.1726C92.5607 25.1628 93.3104 25.0943 94.0503 24.9767C94.7221 24.8494 95.3354 24.5066 95.8028 23.9973C96.3285 23.4879 96.6985 22.8415 96.8737 22.1363C97.0976 21.3723 97.2242 20.5789 97.2632 19.7856C97.2729 18.9432 97.1074 18.1107 96.7764 17.3369C96.5135 16.7199 96.0267 16.2301 95.4133 15.9657C94.6734 15.662 93.8751 15.5249 93.0767 15.5739C92.3952 15.5641 91.7137 15.5935 91.0322 15.6718L90.448 25.0747ZM85.1906 28.6987C85.3853 26.8377 85.4827 25.3685 85.5801 24.1932C85.6774 22.5281 85.7748 20.3732 85.8721 17.7287C85.9695 15.6718 85.9695 14.2026 85.9695 13.4191V11.9499H88.4035C89.085 11.9499 89.9612 11.9499 91.0322 11.8519C92.1031 11.754 93.1741 11.754 94.0503 11.754C94.9947 11.7638 95.9391 11.8225 96.8737 11.9499C97.6915 12.0772 98.4802 12.3417 99.2104 12.7334C99.8821 13.1448 100.476 13.6835 100.963 14.3006C101.469 15.0058 101.839 15.7992 102.034 16.6513C102.316 17.5328 102.443 18.4633 102.423 19.3938C102.423 20.2851 102.326 21.1666 102.131 22.0383C101.946 22.8415 101.683 23.6349 101.352 24.389C101.011 25.0355 100.583 25.6232 100.087 26.1521C99.6095 26.632 99.0935 27.0532 98.5288 27.4254C98.1102 27.6996 97.6526 27.9053 97.1658 28.0131C96.679 28.111 96.0949 28.3069 95.316 28.4048C94.3132 28.493 93.3006 28.5224 92.2978 28.5028H87.3325C86.6413 28.6987 85.9111 28.7672 85.1906 28.6987ZM76.623 28.6987C77.1098 22.1363 77.3045 17.0431 77.3045 13.517V11.9499H82.7566C82.6593 13.8108 82.4646 15.5739 82.3672 17.141C82.2698 19.3938 82.1725 21.5486 82.1725 23.6055C82.1725 25.6623 82.0751 27.3274 82.0751 28.6987H76.623ZM59.2931 28.6987C59.4878 27.0336 59.5852 25.6623 59.6825 24.6829C59.7799 23.2137 59.8772 21.1568 59.9746 18.5123C60.0719 15.8677 60.0719 14.2026 60.0719 13.2232V11.8519H73.0207C72.9234 13.7129 72.826 14.9862 72.826 15.5739H65.1346L65.0373 18.4143H71.3656C71.2683 19.9815 71.2683 21.1568 71.2683 22.0383C70.0026 22.0383 69.029 21.9404 68.3475 21.9404C67.2765 21.9404 66.1082 21.9404 64.8426 22.0383L64.7452 26.4459V28.6987H59.2931ZM38.8476 28.6987L39.1397 26.1521L39.6265 17.4349L39.7239 13.9088V11.9499H45.9549L51.2123 21.4507L51.8938 22.8219C51.9911 21.4507 52.0885 19.4917 52.1859 17.0431C52.2832 14.5944 52.2832 12.8314 52.2832 11.9499H57.1512L56.8591 15.5739L56.2749 25.7603L56.1776 28.6987H50.044C49.6545 27.9151 49.2651 27.3274 49.0704 26.9356L47.0258 23.4096C46.3443 22.2342 45.7601 21.1568 45.176 20.0794C44.7866 19.3938 44.3971 18.7082 44.0077 17.9246L43.7156 23.7034L43.6182 28.6007H41.2816C40.4735 28.6987 39.6655 28.7379 38.8476 28.6987ZM26.9698 15.378C26.0741 15.3486 25.1979 15.5837 24.4385 16.0636C23.6693 16.5142 23.056 17.1998 22.686 18.0225C22.2868 18.8453 22.0921 19.7562 22.1019 20.6671C22.0824 21.4898 22.2868 22.3028 22.686 23.0178C23.0852 23.7132 23.6499 24.2813 24.3411 24.6829C25.0908 25.0747 25.9281 25.2706 26.7751 25.2706C27.6416 25.2999 28.4886 25.0649 29.2091 24.5849C29.9782 24.1344 30.5916 23.4488 30.9615 22.626C31.351 21.8326 31.5457 20.9609 31.5457 20.0794C31.5457 19.2273 31.351 18.3849 30.9615 17.6308C30.6013 16.9157 30.0658 16.3085 29.4038 15.8677C28.6347 15.5347 27.8071 15.3682 26.9698 15.378ZM27.2619 11.656C28.5373 11.6756 29.8127 11.8421 31.0589 12.1458C33.3079 12.7726 35.1869 14.3398 36.2189 16.4554C36.7057 17.5328 36.9394 18.6984 36.9005 19.8835C36.9005 21.196 36.6279 22.4987 36.1216 23.7034C35.6737 24.8494 34.9338 25.868 33.9797 26.6418C32.9964 27.4352 31.8767 28.0326 30.6695 28.4048C28.07 29.1884 25.2855 29.1884 22.686 28.4048C21.4788 28.0326 20.3591 27.4352 19.3758 26.6418C18.4996 25.917 17.8278 24.9669 17.4286 23.8993C17.0197 22.8415 16.825 21.7053 16.8445 20.5691C16.7958 18.9138 17.2436 17.2781 18.1101 15.8677C18.9766 14.4573 20.2812 13.3603 21.8098 12.7334C23.533 11.9988 25.3926 11.6364 27.2619 11.656ZM14.7999 24.6829C14.7026 25.1726 14.6052 25.8582 14.4105 26.7398C14.3521 27.396 14.2547 28.0522 14.1184 28.6987C12.5704 28.9631 11.0127 29.0905 9.44517 29.0905C8.19897 29.0807 6.95277 28.924 5.74552 28.6007C4.59668 28.2873 3.53547 27.7192 2.63003 26.9356C1.73432 26.25 1.0236 25.3391 0.585483 24.2911C0.176574 23.1941 -0.0181442 22.0285 0.00132763 20.863C0.00132763 19.4819 0.264197 18.1205 0.780201 16.8472C1.33515 15.711 2.13349 14.7022 3.11682 13.9088C4.12936 13.1252 5.28793 12.5571 6.52439 12.2437C7.77059 11.9401 9.046 11.7736 10.3214 11.754C11.8207 11.8029 13.3201 11.9695 14.7999 12.2437V13.3211C14.7805 13.8108 14.8194 14.3006 14.8973 14.7903L14.9946 16.1616C14.0211 15.9657 13.2422 15.7698 12.658 15.6718C12.1128 15.5935 11.5579 15.5641 11.0029 15.5739C9.99038 15.5445 8.97785 15.7796 8.08214 16.2595C7.22538 16.7003 6.51466 17.3761 6.0376 18.2184C5.53133 19.0804 5.25872 20.0598 5.25872 21.0589C5.21978 21.8816 5.42423 22.7044 5.84288 23.4096C6.25179 24.105 6.86515 24.6437 7.59535 24.9767C8.40343 25.3979 9.30887 25.6036 10.224 25.5644C10.8374 25.5742 11.4605 25.5448 12.0739 25.4665C12.9501 25.1041 13.8653 24.8396 14.7999 24.6829Z" fill="#C4C4C4"/>
<path d="M207.376 34.4768V29.0897L211.758 26.6411V12.9286H221.98L217.891 2.74219L186.542 14.2019V47.6995H207.376V34.4768Z" fill="#C4C4C4"/>
<path d="M233.858 47.7974V14.2998H213.023V27.4246V33.0075L208.739 35.2603V49.0707H208.155H198.517L202.508 59.2572L233.858 47.7974Z" fill="#E6E6E6"/>
<path d="M223.927 12.1453L219.157 0L184.497 12.6351V49.8547H196.569L201.34 62L236 49.3649V12.2433L223.927 12.1453ZM235.221 48.6793L201.73 60.9226L197.056 48.9731H185.276V13.2227L218.767 0.979463L223.441 12.9289H235.318V48.6793H235.221Z" fill="white"/>
<path d="M211.758 28.1104V32.1261L208.739 33.6933V29.8734L211.758 28.1104Z" fill="white"/>
</svg>
